<?xml version="1.0" standalone="no"?>
<!DOCTYPE svg PUBLIC "-//W3C//DTD SVG 20010904//EN"
 "http://www.w3.org/TR/2001/REC-SVG-20010904/DTD/svg10.dtd">
<svg version="1.0"
	xmlns="http://www.w3.org/2000/svg" width="279.000000pt" height="291.000000pt" viewBox="0 0 279.000000 291.000000" preserveAspectRatio="xMidYMid meet">
	<g transform="translate(0.000000,291.000000) scale(0.100000,-0.100000)" fill="#FFFFFF" stroke="none">
		<path d="M1103 2568 c-7 -8 -8 -58 -3 -133 6 -105 10 -126 34 -170 26 -47 27
-55 21 -127 -6 -68 -4 -83 14 -118 12 -22 21 -54 21 -70 0 -27 -3 -29 -46 -36
-38 -5 -56 -16 -93 -54 -63 -64 -66 -69 -89 -136 -15 -44 -23 -106 -31 -244
-6 -102 -15 -201 -21 -220 -5 -19 -14 -100 -20 -180 -29 -388 -39 -497 -45
-526 -4 -19 -2 -41 5 -53 9 -19 17 -21 43 -15 38 8 989 8 1016 -1 10 -3 30 -1
45 4 28 11 35 46 16 81 -9 16 -19 139 -60 695 -5 61 -13 137 -20 170 -6 33
-15 113 -20 177 -7 82 -15 129 -29 155 -27 54 -119 143 -147 143 -68 0 -93 39
-56 90 13 20 17 46 17 120 0 82 3 99 21 122 22 28 39 113 49 245 5 66 3 73
-16 84 -13 6 -39 8 -65 4 -39 -5 -47 -11 -62 -43 -28 -60 -74 -55 -107 11 -11
24 -59 40 -93 32 -12 -3 -28 -17 -34 -30 -28 -62 -110 -65 -123 -5 -5 22 -13
29 -43 34 -54 9 -68 7 -79 -6z m350 -154 c26 -22 37 -25 72 -20 23 4 49 4 58
0 20 -7 22 -58 4 -94 -13 -25 -13 -25 -167 -26 -177 -1 -194 4 -203 62 -9 54
4 65 67 58 47 -6 55 -4 81 20 35 33 49 33 88 0z m90 -243 c11 -2 9 -95 -3
-128 -6 -15 -24 -40 -41 -55 -57 -51 -129 -49 -193 6 -37 31 -38 36 -39 97 -1
35 2 69 6 76 5 8 46 10 135 9 70 -2 130 -4 135 -5z m73 -348 c16 -11 39 -23
51 -27 31 -10 83 -72 83 -101 0 -29 -4 -31 -160 -46 -154 -14 -504 2 -527 25
-18 18 67 126 99 126 6 0 19 7 29 16 27 25 65 29 238 28 142 0 161 -2 187 -21z
m-497 -257 c27 -15 28 -17 36 -133 5 -65 8 -134 8 -153 -2 -79 -24 -274 -38
-332 -8 -35 -19 -123 -26 -196 -8 -84 -17 -136 -25 -143 -7 -6 -31 -13 -53
-16 -60 -8 -65 14 -41 184 10 76 24 226 29 335 6 108 13 202 16 210 3 7 9 64
14 127 9 133 19 148 80 117z m653 -5 c4 -3 11 -103 17 -221 10 -219 32 -463
52 -580 24 -142 24 -149 -7 -161 -32 -12 -90 -4 -101 14 -4 6 -10 54 -14 107
-11 149 -28 286 -49 398 -23 117 -24 185 -7 324 14 113 31 142 75 132 15 -4
30 -9 34 -13z m-367 -34 c11 0 53 4 92 8 88 10 92 5 73 -97 -21 -110 -24 -112
-166 -109 -65 1 -121 4 -125 7 -4 2 -10 23 -14 47 -3 23 -11 61 -17 84 -17 69
-9 77 70 68 37 -4 76 -7 87 -8z m146 -303 c7 -8 16 -74 21 -147 5 -73 16 -188
25 -257 9 -69 16 -145 17 -170 l1 -45 -208 -1 c-240 -1 -230 -6 -202 101 8 32
15 91 15 130 1 38 8 106 16 150 8 44 18 112 21 150 3 39 10 78 15 88 11 21 70
23 87 4 7 -10 8 -71 2 -213 -8 -173 -7 -201 7 -216 18 -21 61 -23 86 -5 21 15
21 6 7 246 -5 96 -7 179 -4 184 16 26 72 27 94 1z"/>
		<path d="M457 1201 c-15 -10 -41 -39 -58 -65 -28 -42 -31 -53 -27 -106 3 -45
10 -65 26 -80 28 -26 28 -38 0 -68 -22 -22 -23 -33 -26 -201 -3 -139 -1 -179
10 -187 8 -6 61 -7 133 -4 66 3 135 2 154 -3 21 -5 37 -5 44 2 14 14 10 334
-5 384 -9 28 -8 50 2 91 26 111 2 194 -71 238 -40 24 -143 24 -182 -1z m151
-121 c27 -36 28 -64 2 -90 -28 -28 -105 -28 -120 -1 -14 27 -13 57 5 91 13 25
22 30 53 30 31 0 43 -6 60 -30z m8 -255 c16 -40 19 -177 4 -206 -9 -15 -22
-19 -69 -19 -42 0 -60 4 -64 14 -7 17 1 225 9 237 3 5 28 9 55 9 48 0 51 -2
65 -35z"/>
		<path d="M2141 1169 l-51 -52 0 -72 c0 -52 4 -76 15 -85 19 -16 19 -50 0 -86
-11 -23 -15 -68 -15 -199 0 -93 4 -175 8 -181 5 -8 36 -9 99 -4 51 3 120 3
155 -1 44 -5 66 -4 75 4 10 11 9 53 -8 422 -1 11 4 49 10 85 14 74 9 101 -26
152 -34 51 -73 68 -149 68 -62 0 -63 0 -113 -51z m178 -85 c28 -36 26 -70 -5
-100 -21 -22 -31 -25 -62 -19 -20 4 -40 12 -44 18 -14 22 -9 95 8 111 25 26
79 20 103 -10z m-1 -239 c9 -8 15 -45 16 -111 3 -91 2 -99 -20 -121 -25 -24
-63 -30 -95 -13 -17 10 -19 22 -19 123 0 62 4 117 8 123 15 25 84 24 110 -1z"/>
	</g>
</svg>
