<?xml version="1.0" standalone="no"?>
<!DOCTYPE svg PUBLIC "-//W3C//DTD SVG 20010904//EN"
 "http://www.w3.org/TR/2001/REC-SVG-20010904/DTD/svg10.dtd">
<svg version="1.0"
	xmlns="http://www.w3.org/2000/svg" width="89.000000pt" height="98.000000pt" viewBox="0 0 89.000000 98.000000" preserveAspectRatio="xMidYMid meet">
	<g transform="rotate(90,44.5,49) translate(0.000000,98.000000) scale(0.100000,-0.100000)" fill="#FFFFFF" stroke="none">
		<path d="M384 804 c-7 -3 -1 -25 17 -62 16 -31 36 -74 44 -94 25 -63 35 -45
35 62 l0 100 -42 -1 c-24 0 -48 -3 -54 -5z"/>
		<path d="M540 670 c0 -122 1 -130 19 -130 18 0 91 74 91 92 0 5 18 17 41 27
l40 18 -25 30 c-24 28 -132 93 -155 93 -7 0 -11 -41 -11 -130z"/>
		<path d="M287 772 c-15 -9 -27 -19 -27 -22 0 -3 29 -35 65 -70 36 -35 65 -61
65 -57 0 5 -11 33 -25 63 -14 30 -25 58 -25 62 0 4 -6 14 -13 24 -12 15 -15
15 -40 0z"/>
		<path d="M180 680 c-12 -17 -20 -35 -18 -41 5 -15 167 -73 177 -64 5 6 -119
135 -131 135 -3 0 -16 -14 -28 -30z"/>
		<path d="M663 556 c-31 -41 -52 -58 -83 -67 -60 -18 -51 -46 13 -41 9 1 37 22
60 47 24 25 51 45 60 45 8 0 29 -12 46 -26 l31 -26 0 30 c0 35 -43 92 -68 92
-10 0 -36 -25 -59 -54z"/>
		<path d="M122 548 l-8 -33 47 -3 c27 -2 74 -2 105 0 l57 3 -84 29 c-46 15 -89
30 -96 33 -7 2 -16 -9 -21 -29z"/>
		<path d="M441 534 c-27 -34 -27 -78 -1 -104 33 -33 40 -24 40 55 0 41 -4 75
-9 75 -5 0 -19 -12 -30 -26z"/>
		<path d="M671 438 c-35 -38 -45 -42 -85 -43 l-46 0 0 -112 c0 -131 1 -132 87
-83 71 41 143 131 143 180 0 25 -37 100 -49 100 -5 0 -28 -19 -50 -42z"/>
		<path d="M125 413 c3 -21 10 -42 15 -46 4 -5 42 8 84 27 42 20 81 36 86 36 6
0 10 4 10 8 0 5 -46 10 -101 11 l-101 2 7 -38z"/>
		<path d="M335 381 c-6 -5 -41 -21 -80 -36 -38 -15 -74 -31 -79 -35 -8 -8 22
-59 35 -60 6 0 139 129 139 136 0 6 -5 5 -15 -5z"/>
		<path d="M449 323 c-32 -82 -57 -159 -53 -165 3 -5 23 -8 45 -8 l39 0 0 100
c0 102 -10 126 -31 73z"/>
		<path d="M322 277 c-67 -67 -68 -78 -12 -92 23 -5 27 -1 57 75 17 44 28 80 24
80 -3 0 -35 -28 -69 -63z"/>
	</g>
</svg>
