<?xml version="1.0" standalone="no"?>
<!DOCTYPE svg PUBLIC "-//W3C//DTD SVG 20010904//EN"
 "http://www.w3.org/TR/2001/REC-SVG-20010904/DTD/svg10.dtd">
<svg version="1.0"
	xmlns="http://www.w3.org/2000/svg" width="255.000000pt" height="264.000000pt" viewBox="0 0 255.000000 264.000000" preserveAspectRatio="xMidYMid meet">
	<g transform="rotate(90,127.5,132) translate(0.000000,264.000000) scale(0.100000,-0.100000)" fill="#FFFFFF" stroke="none">
		<path d="M920 2331 c-32 -9 -36 -31 -15 -100 20 -64 56 -107 133 -158 53 -36
54 -36 133 -30 75 6 82 5 103 -16 29 -29 43 -136 23 -174 -26 -53 -224 -91
-301 -59 -59 25 -264 23 -314 -3 -66 -35 -100 -76 -107 -128 -8 -62 -16 -76
-51 -87 -59 -17 -144 -65 -169 -94 -16 -19 -28 -49 -33 -83 -6 -43 -12 -56
-34 -68 -23 -13 -34 -14 -74 -3 -62 17 -94 -1 -94 -53 0 -51 23 -68 79 -59 97
16 114 6 125 -73 3 -26 17 -61 31 -79 28 -36 105 -79 160 -90 35 -6 65 -35 65
-62 0 -8 12 -34 27 -58 24 -36 37 -46 83 -60 36 -10 71 -14 102 -10 l48 7 0
-34 c0 -22 -6 -37 -18 -43 -9 -5 -48 -31 -85 -58 -76 -56 -81 -73 -38 -124 32
-38 46 -36 90 12 30 32 51 20 51 -31 0 -47 76 -130 129 -139 20 -3 55 -13 78
-21 38 -14 47 -14 95 2 29 9 63 22 75 29 43 22 133 88 133 97 0 5 14 16 31 25
27 13 38 14 78 4 25 -7 61 -21 79 -31 47 -27 59 -24 82 21 35 69 25 90 -45 90
-36 0 -106 26 -117 44 -12 18 -9 43 6 59 9 8 45 16 89 20 50 3 93 14 127 30
55 26 69 26 109 -5 38 -29 128 -25 177 8 21 14 46 35 55 46 10 12 24 19 40 16
19 -2 25 -11 30 -42 7 -43 21 -56 64 -56 52 0 61 17 57 108 -2 41 -58 100
-109 114 -20 5 -50 23 -66 39 -16 17 -42 33 -58 36 -36 7 -38 31 -6 82 20 34
22 47 22 201 0 151 -2 169 -22 207 -26 49 -22 68 15 81 15 5 44 26 65 46 21
20 48 36 59 36 11 0 37 17 58 38 28 28 39 48 44 84 10 67 -4 88 -58 88 -48 0
-71 -18 -63 -50 10 -38 -56 -71 -69 -35 -10 24 -108 85 -137 85 -15 0 -43 -8
-63 -17 -34 -17 -36 -17 -50 1 -9 13 -12 32 -8 56 12 74 -48 163 -152 228 -37
23 -43 24 -266 23 -269 -2 -272 -1 -312 86 -14 32 -30 65 -35 73 -9 17 -44 22
-81 11z m631 -290 c23 -9 85 -65 98 -89 16 -31 13 -80 -5 -90 -11 -6 -33 -4
-63 5 -25 8 -68 12 -94 10 -59 -5 -72 10 -81 95 -5 51 -4 58 16 72 21 15 86
13 129 -3z m-70 -441 c-3 -184 -3 -185 -30 -212 -32 -34 -51 -35 -85 -3 l-26
24 0 171 c0 154 2 171 18 176 9 3 31 12 47 19 17 8 41 13 55 12 l25 -2 -4
-185z m173 149 c26 -12 46 -46 68 -117 13 -44 41 -72 102 -102 27 -13 32 -22
37 -65 4 -28 12 -75 20 -106 11 -49 10 -68 -4 -142 -9 -47 -17 -97 -17 -110 0
-28 -45 -72 -95 -93 -25 -10 -34 -24 -49 -73 -22 -69 -65 -111 -114 -111 -35
0 -44 17 -33 58 5 16 12 94 16 173 l7 144 -51 38 c-56 41 -64 63 -27 73 33 8
76 55 77 84 2 49 -12 246 -21 283 -7 32 -5 42 11 58 22 22 38 24 73 8z m290
-8 c17 -15 21 -58 7 -80 -12 -18 -106 -27 -125 -12 -21 18 -29 66 -16 92 11
19 18 21 65 17 30 -3 61 -10 69 -17z m-1144 -451 l0 -410 -32 0 c-41 0 -48 5
-81 55 l-27 40 0 312 c0 171 4 322 9 335 17 45 58 78 96 78 l35 0 0 -410z
m190 389 c44 -23 93 -21 172 7 66 23 69 16 61 -160 l-6 -151 47 -32 c26 -19
46 -40 46 -51 0 -20 -31 -52 -69 -72 l-24 -12 6 -148 c4 -98 3 -150 -5 -158
-7 -7 -22 -5 -52 9 -25 11 -64 19 -99 19 -50 0 -61 -4 -82 -26 -25 -27 -68
-35 -87 -16 -7 7 -6 27 2 64 8 36 11 164 10 393 -1 187 -2 343 -1 348 2 14 40
7 81 -14z m-443 -207 c22 -14 30 -54 20 -106 -5 -28 -6 -99 -3 -157 l6 -106
-26 -12 c-33 -15 -61 2 -104 61 -27 37 -30 49 -30 115 0 83 11 112 67 174 36
39 48 45 70 31z m901 -281 c17 -17 32 -38 32 -48 0 -10 2 -89 3 -176 4 -146 2
-159 -15 -168 -14 -8 -32 -4 -73 15 l-55 25 0 166 0 166 30 17 c16 9 30 20 30
25 0 14 16 7 48 -22z m475 -252 c28 -15 37 -28 37 -56 0 -34 -40 -55 -97 -51
l-48 3 -3 42 c-2 33 1 44 20 57 27 19 61 21 91 5z m-704 -160 c15 -11 47 -23
70 -26 26 -4 47 -13 56 -27 29 -40 12 -136 -23 -136 -11 0 -30 -8 -43 -18
-165 -127 -206 -137 -286 -74 -68 55 -76 67 -75 118 0 51 10 68 81 143 l51 54
71 -7 c47 -4 79 -13 98 -27z"/>
	</g>
</svg>
