<?xml version="1.0" standalone="no"?>
<!DOCTYPE svg PUBLIC "-//W3C//DTD SVG 20010904//EN"
 "http://www.w3.org/TR/2001/REC-SVG-20010904/DTD/svg10.dtd">
<svg version="1.0"
	xmlns="http://www.w3.org/2000/svg" width="99.000000pt" height="89.000000pt" viewBox="0 0 99.000000 89.000000" preserveAspectRatio="xMidYMid meet">
	<g transform="rotate(-90,49.5,44.5) translate(0.000000,89.000000) scale(0.100000,-0.100000)" fill="#FFFFFF" stroke="none">
		<path d="M180 621 c0 -51 3 -62 12 -53 8 8 66 12 193 12 l181 0 27 -50 c15
-28 25 -55 22 -60 -9 -15 -408 -13 -423 2 -9 9 -12 -1 -12 -47 0 -46 3 -56 12
-47 9 9 73 12 226 12 l213 0 -32 -60 -32 -60 -181 0 c-128 0 -186 4 -194 12
-9 9 -12 -2 -12 -52 0 -50 3 -61 12 -52 17 17 309 17 326 0 15 -15 11 -18 62
77 67 124 76 135 116 135 19 0 34 -5 34 -11 0 -22 -63 -125 -92 -151 -26 -23
-29 -30 -18 -42 7 -9 16 -14 20 -11 8 5 75 121 109 188 12 24 19 27 62 27 35
0 51 -5 58 -17 8 -14 10 1 11 57 0 70 -1 73 -16 52 -11 -16 -25 -22 -53 -22
-48 0 -50 2 -120 132 -47 88 -51 92 -69 74 -14 -14 -13 -17 10 -36 30 -23 101
-147 93 -161 -4 -5 -19 -9 -35 -9 -33 0 -42 10 -106 128 l-40 75 -174 -2
c-135 -2 -175 0 -181 11 -5 8 -9 -13 -9 -51z"/>
	</g>
</svg>
