<?xml version="1.0" standalone="no"?>
<!DOCTYPE svg PUBLIC "-//W3C//DTD SVG 20010904//EN"
 "http://www.w3.org/TR/2001/REC-SVG-20010904/DTD/svg10.dtd">
<svg version="1.0"
	xmlns="http://www.w3.org/2000/svg" width="86.000000pt" height="86.000000pt" viewBox="0 0 86.000000 86.000000" preserveAspectRatio="xMidYMid meet">
	<g transform="translate(0.000000,86.000000) scale(0.100000,-0.100000)" fill="#000000" stroke="none">
		<path d="M274 791 c-2 -2 -4 -31 -4 -63 l0 -58 76 0 c72 0 75 -1 72 -22 -2
-15 -10 -23 -23 -23 -13 0 -21 -8 -23 -22 -3 -22 -7 -23 -103 -23 l-99 0 0
-40 0 -40 -50 0 -50 0 0 -65 0 -65 50 0 50 0 0 -41 0 -41 100 4 c99 4 100 4
100 -20 0 -18 5 -23 23 -20 18 2 22 -2 22 -22 0 -25 -1 -25 -72 -21 l-73 3 0
-66 0 -66 164 0 163 0 -1 62 -1 63 -70 0 c-64 0 -70 2 -73 22 -2 16 3 22 20
25 15 2 23 10 23 22 0 19 7 20 104 17 l103 -3 -4 41 -4 41 53 0 53 0 0 65 0
65 -53 0 -53 0 4 40 4 40 -107 0 c-104 0 -106 0 -103 22 2 17 -2 23 -17 23
-13 0 -21 8 -23 23 -3 21 0 22 72 22 l75 0 -3 61 -2 61 -158 1 c-87 1 -160 0
-162 -2z m286 -61 c0 -19 -7 -20 -125 -20 -118 0 -125 1 -125 20 0 19 7 20
125 20 118 0 125 -1 125 -20z m-102 -167 c3 -19 -1 -23 -22 -23 -21 0 -26 5
-26 26 0 21 4 25 23 22 14 -2 23 -11 25 -25z m-88 -43 c0 -18 7 -20 66 -20 61
0 65 1 59 20 -6 19 -2 20 79 20 79 0 86 -2 86 -20 0 -17 -7 -20 -50 -20 l-50
0 0 -66 0 -67 50 6 c48 6 50 5 50 -18 0 -25 -1 -25 -86 -25 -81 0 -86 1 -81
20 5 18 0 20 -59 20 -57 0 -64 -2 -64 -20 0 -18 -7 -20 -80 -20 -63 0 -82 3
-87 15 -9 24 2 29 57 26 l50 -2 0 66 0 65 -55 0 c-48 0 -55 2 -55 20 0 18 7
20 85 20 78 0 85 -2 85 -20z m-100 -85 c0 -25 -1 -25 -79 -25 -80 0 -98 8 -87
35 4 12 25 15 86 15 79 0 80 0 80 -25z m490 0 c0 -25 -1 -25 -80 -25 -79 0
-80 0 -80 25 0 25 1 25 80 25 79 0 80 0 80 -25z m-302 -122 c-4 -39 -42 -39
-46 0 -3 23 0 27 23 27 23 0 26 -4 23 -27z m102 -168 l0 -25 -125 0 -125 0 0
25 0 25 125 0 125 0 0 -25z"/>
	</g>
</svg>
