<?xml version="1.0" standalone="no"?>
<!DOCTYPE svg PUBLIC "-//W3C//DTD SVG 20010904//EN"
 "http://www.w3.org/TR/2001/REC-SVG-20010904/DTD/svg10.dtd">
<svg version="1.0"
	xmlns="http://www.w3.org/2000/svg" width="252.000000pt" height="276.000000pt" viewBox="0 0 252.000000 276.000000" preserveAspectRatio="xMidYMid meet">
	<g transform="translate(0.000000,276.000000) scale(0.100000,-0.100000)" fill="#000000" stroke="none">
		<path d="M435 2293 c-39 -10 -145 -75 -171 -105 -14 -18 -39 -60 -56 -95 -27
-58 -30 -72 -26 -146 2 -66 8 -88 25 -112 13 -16 25 -44 29 -61 5 -28 3 -32
-25 -42 -29 -10 -31 -14 -31 -59 0 -26 9 -67 20 -91 11 -24 25 -62 31 -85 8
-31 29 -60 81 -110 71 -70 122 -100 193 -113 66 -11 67 -13 59 -144 -6 -113
-6 -119 20 -176 15 -33 43 -76 63 -96 l36 -37 -7 -160 c-7 -179 2 -242 38
-281 13 -14 27 -35 31 -48 3 -12 23 -34 43 -47 20 -14 48 -33 61 -42 23 -16
56 -18 371 -18 l347 0 44 29 c46 32 64 48 117 109 l32 38 0 210 0 211 52 57
c75 83 82 103 74 246 -3 66 -2 125 2 131 4 6 27 15 52 19 74 12 127 41 188
103 78 79 97 115 116 218 21 116 21 116 -14 136 l-29 17 19 43 c10 24 24 71
31 105 17 84 -8 225 -46 261 -14 12 -25 27 -25 31 0 5 -28 27 -62 51 -46 32
-78 45 -126 53 -103 18 -107 9 -90 -206 7 -84 6 -88 -17 -103 -35 -23 -97 -4
-124 39 -24 39 -56 64 -136 105 l-60 31 -357 -2 c-311 -2 -359 -5 -375 -19
-10 -8 -33 -23 -52 -33 -18 -9 -59 -43 -90 -76 -62 -64 -102 -76 -134 -41 -15
17 -16 32 -6 150 6 73 8 139 5 147 -5 15 -74 19 -121 8z m8 -135 c2 -7 2 -75
-1 -150 -5 -156 -3 -161 69 -139 53 16 84 1 74 -37 -3 -15 -9 -43 -13 -62 -7
-35 -8 -35 -64 -38 -64 -3 -105 17 -167 81 -58 61 -64 194 -13 270 46 68 104
106 115 75z m1639 -22 c41 -37 61 -85 66 -163 6 -98 -24 -163 -98 -211 -45
-29 -58 -33 -108 -30 l-57 3 -7 53 c-10 68 3 96 39 87 103 -26 106 -22 92 144
-5 67 -7 126 -4 131 11 17 49 10 77 -14z m-999 -116 c14 -11 32 -20 40 -20 7
0 22 9 32 20 24 27 93 27 145 0 l40 -20 29 21 c26 19 39 21 103 17 87 -6 133
-27 203 -95 86 -83 88 -88 89 -251 1 -141 1 -144 -24 -164 -22 -17 -33 -19
-95 -13 -134 12 -254 6 -264 -15 -4 -8 -5 -98 -1 -200 3 -109 2 -190 -3 -197
-5 -7 -23 -13 -39 -13 -16 0 -46 -9 -67 -19 -39 -21 -74 -19 -101 5 -8 7 -33
14 -55 16 l-40 3 0 210 0 210 -44 -3 c-24 -1 -65 4 -92 13 -42 14 -51 14 -71
2 -37 -23 -76 -28 -119 -16 -31 10 -46 22 -67 58 -23 39 -26 54 -23 114 3 76
22 141 50 172 10 11 22 31 26 45 13 43 113 119 173 131 77 14 148 10 175 -11z
m-628 -387 c50 -3 96 -10 103 -15 18 -15 17 -247 -2 -254 -13 -5 -25 1 -109
55 -51 32 -147 157 -147 191 0 35 9 43 40 35 14 -3 66 -9 115 -12z m1685 -22
c0 -35 -26 -81 -77 -133 -69 -71 -111 -100 -146 -102 l-32 -1 -3 105 c-2 58 0
115 3 127 6 26 16 28 153 29 l102 2 0 -27z m-1390 -217 c43 -13 61 -14 95 -4
23 6 57 10 76 8 l34 -3 -4 -215 c-4 -259 -7 -253 95 -225 56 15 73 16 123 5
44 -9 71 -9 113 -1 41 9 67 9 100 1 25 -6 60 -10 79 -8 l34 3 0 220 0 220 37
3 c21 2 53 -1 72 -7 26 -7 53 -5 98 5 80 19 87 12 81 -74 -6 -75 -18 -85 -86
-70 -61 13 -97 -7 -97 -52 0 -39 34 -74 63 -66 108 30 123 18 106 -83 -10 -60
-17 -76 -41 -94 -88 -67 -84 -61 -72 -105 12 -44 2 -82 -21 -82 -8 0 -43 13
-78 28 l-62 28 -280 -2 -280 -2 -53 -26 c-78 -39 -111 -22 -91 46 14 50 13 54
-41 93 -58 43 -90 97 -90 153 0 54 15 63 89 55 72 -7 81 -1 81 59 0 48 -19 58
-99 51 -77 -7 -81 -3 -81 90 0 63 1 67 23 67 13 0 47 -7 77 -16z m811 -709
c42 -31 65 -60 84 -104 20 -45 19 -71 -5 -123 -26 -59 -51 -85 -103 -108 -40
-18 -68 -19 -308 -19 -210 0 -273 3 -309 15 -90 31 -139 115 -125 214 5 37 15
55 43 82 76 72 55 68 387 68 l301 0 35 -25z"/>
		<path d="M930 570 c-45 -45 -11 -120 53 -120 18 0 38 5 45 12 16 16 16 100 0
116 -19 19 -76 14 -98 -8z"/>
		<path d="M1414 580 c-39 -16 -42 -100 -4 -120 28 -15 83 -12 108 6 15 10 22
25 22 47 0 41 -9 53 -43 66 -33 13 -54 13 -83 1z"/>
	</g>
</svg>
