<?xml version="1.0" standalone="no"?>
<!DOCTYPE svg PUBLIC "-//W3C//DTD SVG 20010904//EN"
 "http://www.w3.org/TR/2001/REC-SVG-20010904/DTD/svg10.dtd">
<svg version="1.0"
	xmlns="http://www.w3.org/2000/svg" width="97.000000pt" height="108.000000pt" viewBox="0 0 97.000000 108.000000" preserveAspectRatio="xMidYMid meet">
	<g transform="translate(0.000000,108.000000) scale(0.100000,-0.100000)" fill="#000000" stroke="none">
		<path d="M585 816 c-33 -43 -44 -47 -89 -34 -31 10 -39 9 -53 -4 -9 -9 -13
-24 -10 -32 10 -26 48 -34 111 -24 33 5 63 5 67 1 4 -4 11 -36 14 -69 7 -57 6
-62 -13 -68 -24 -8 -124 8 -192 30 -80 26 -128 56 -170 105 -23 27 -48 49 -56
49 -22 0 -17 -64 11 -146 26 -76 25 -89 -11 -170 -7 -17 -15 -50 -16 -75 -3
-39 0 -44 19 -47 17 -2 26 4 35 23 23 50 270 159 349 153 l44 -3 -3 -65 c-1
-35 -7 -69 -13 -75 -5 -5 -45 -10 -87 -10 -71 0 -77 -2 -80 -21 -2 -17 4 -23
29 -28 17 -3 43 -6 56 -6 14 0 41 -13 60 -30 37 -33 41 -34 62 -21 10 6 14 39
15 124 2 149 4 151 107 142 71 -6 78 -5 88 13 6 11 8 28 5 37 -11 29 -37 34
-98 20 -32 -8 -64 -11 -71 -9 -24 10 -35 56 -35 152 0 129 -23 156 -75 88z
m-180 -233 c77 -32 82 -38 53 -57 -26 -17 -156 -66 -175 -66 -9 0 -13 23 -13
81 l0 81 37 -7 c21 -4 65 -18 98 -32z"/>
	</g>
</svg>
