<?xml version="1.0" standalone="no"?>
<!DOCTYPE svg PUBLIC "-//W3C//DTD SVG 20010904//EN"
 "http://www.w3.org/TR/2001/REC-SVG-20010904/DTD/svg10.dtd">
<svg version="1.0"
	xmlns="http://www.w3.org/2000/svg" width="85.000000pt" height="90.000000pt" viewBox="0 0 85.000000 90.000000" preserveAspectRatio="xMidYMid meet">
	<g transform="rotate(180,42.5,45) translate(0.000000,90.000000) scale(0.100000,-0.100000)" fill="#000000" stroke="none">
		<path d="M529 791 c-60 -12 -105 -39 -148 -87 -40 -45 -91 -159 -91 -202 0
-22 23 -31 35 -12 11 17 43 11 65 -12 43 -47 11 -78 -112 -108 -55 -13 -107
-33 -127 -48 -41 -31 -65 -84 -57 -132 6 -42 57 -93 89 -88 20 3 22 8 19 54
-5 72 33 108 72 68 19 -18 20 -36 5 -51 -18 -18 -1 -34 29 -27 77 19 113 54
170 163 19 36 41 74 50 84 17 20 62 23 80 5 15 -15 16 -60 1 -75 -8 -8 -8 -13
1 -18 16 -10 84 40 114 83 43 63 56 106 56 190 0 71 -3 83 -29 119 -38 52 -77
80 -132 92 -24 6 -46 10 -49 10 -3 -1 -21 -4 -41 -8z m133 -118 c32 -31 38
-44 38 -79 0 -33 -7 -50 -32 -78 -27 -30 -38 -36 -73 -36 -29 0 -47 6 -60 20
-10 11 -28 20 -41 20 -28 0 -44 26 -44 71 0 24 10 42 44 75 38 38 49 44 87 44
36 0 49 -6 81 -37z"/>
		<path d="M538 635 c-34 -29 -36 -53 -5 -64 13 -5 29 -16 36 -25 7 -9 19 -16
26 -16 21 0 45 35 45 67 0 25 -6 34 -34 47 -41 20 -35 20 -68 -9z"/>
		<path d="M236 641 c-12 -13 -14 -21 -6 -26 13 -8 40 12 40 31 0 20 -14 17 -34
-5z"/>
		<path d="M138 496 c-31 -23 -64 -127 -40 -126 25 2 102 27 116 39 25 21 20 66
-9 85 -29 19 -44 20 -67 2z"/>
		<path d="M697 236 c-3 -8 -3 -17 0 -20 7 -7 33 13 33 25 0 15 -27 10 -33 -5z"/>
		<path d="M538 223 c-8 -10 -22 -40 -31 -66 -14 -43 -15 -49 -1 -54 9 -3 33 0
54 6 66 20 92 84 48 115 -29 21 -51 20 -70 -1z"/>
		<path d="M413 125 c-3 -9 -3 -18 0 -21 9 -9 27 6 27 22 0 19 -19 18 -27 -1z"/>
	</g>
</svg>
